<?xml version="1.0" standalone="no"?>
<!DOCTYPE svg PUBLIC "-//W3C//DTD SVG 20010904//EN"
 "http://www.w3.org/TR/2001/REC-SVG-20010904/DTD/svg10.dtd">
<svg version="1.0" xmlns="http://www.w3.org/2000/svg"
 width="188.000000pt" height="151.000000pt" viewBox="0 0 188.000000 151.000000"
 preserveAspectRatio="xMidYMid meet">

<g transform="translate(0.000000,151.000000) scale(0.100000,-0.100000)"
fill="#000000" stroke="none">
<path d="M768 1400 c-15 -4 -44 -18 -64 -31 -21 -12 -39 -18 -43 -12 -31 45
-131 58 -188 24 -32 -20 -108 -109 -126 -148 -5 -12 -14 -20 -18 -17 -5 3 -6
-1 -3 -9 3 -8 0 -18 -7 -23 -8 -5 -10 -3 -4 6 5 9 4 11 -4 6 -6 -4 -9 -11 -6
-16 3 -5 -1 -22 -10 -37 -9 -16 -14 -20 -11 -10 4 11 2 16 -5 11 -6 -3 -9 -15
-6 -25 3 -11 2 -17 -2 -14 -10 6 -23 -23 -72 -154 -22 -58 -51 -125 -64 -149
-14 -25 -23 -48 -19 -51 3 -3 42 -6 87 -6 115 0 205 43 242 115 17 35 28 83
16 76 -21 -14 -19 29 5 76 14 27 23 53 19 56 -3 4 -10 1 -14 -6 -8 -14 -51
-25 -51 -13 0 31 206 281 232 281 4 0 14 -16 22 -35 8 -19 22 -35 30 -35 9 0
26 -21 39 -46 13 -25 26 -45 30 -45 4 1 11 1 16 1 5 0 32 -59 60 -131 56 -143
79 -186 128 -242 l32 -37 148 0 c123 0 155 4 188 19 46 22 104 79 134 134 77
140 112 209 106 215 -3 4 -9 2 -13 -3 -4 -6 -15 -16 -24 -23 -14 -11 -16 -11
-11 7 3 12 8 19 12 17 3 -2 7 6 7 19 1 13 29 78 62 144 l61 121 -98 0 c-89 0
-99 -2 -117 -22 -47 -55 -65 -92 -108 -228 -42 -133 -51 -152 -101 -213 -31
-37 -59 -67 -64 -67 -4 0 -18 30 -30 67 -28 84 -26 81 -56 76 -13 -3 -22 -10
-19 -15 8 -13 -5 -78 -15 -78 -15 0 -48 88 -107 284 -4 12 -2 16 5 12 6 -4 20
-9 31 -11 17 -3 19 0 14 23 -30 125 -137 195 -246 162z m-324 -476 c3 -8 2
-12 -4 -9 -6 3 -10 10 -10 16 0 14 7 11 14 -7z"/>
<path d="M1420 1379 c0 -5 5 -7 10 -4 6 3 10 8 10 11 0 2 -4 4 -10 4 -5 0 -10
-5 -10 -11z"/>
<path d="M816 862 c-8 -14 46 -74 80 -88 45 -19 75 -18 68 1 -4 8 -10 13 -14
10 -4 -3 -26 15 -48 40 -38 43 -61 59 -46 33 6 -10 4 -10 -7 0 -15 14 -26 15
-33 4z"/>
<path d="M1448 669 c-10 -5 -18 -19 -18 -30 0 -11 -7 -22 -15 -25 -8 -4 -15
-10 -15 -15 0 -5 7 -9 15 -9 12 0 15 -14 15 -65 0 -37 4 -65 10 -65 6 0 10 28
10 65 0 51 3 65 15 65 8 0 15 4 15 9 0 5 -7 11 -15 15 -22 8 -18 33 6 39 12 3
18 10 14 16 -8 13 -15 13 -37 0z"/>
<path d="M340 566 c0 -88 3 -106 15 -106 12 0 15 16 16 83 l0 82 31 -82 c17
-46 36 -83 43 -83 7 0 26 33 41 73 15 39 31 76 36 82 4 5 8 -28 8 -73 0 -48 4
-82 10 -82 6 0 10 42 10 105 0 96 -2 105 -19 105 -14 0 -26 -20 -51 -86 -17
-47 -34 -84 -35 -82 -2 2 -17 39 -33 83 -23 62 -34 81 -51 83 -20 3 -21 0 -21
-102z"/>
<path d="M602 659 c2 -6 8 -10 13 -10 5 0 11 4 13 10 2 6 -4 11 -13 11 -9 0
-15 -5 -13 -11z"/>
<path d="M1520 640 c0 -11 -7 -23 -16 -27 -15 -6 -15 -7 -1 -18 11 -8 17 -31
19 -71 3 -52 5 -59 26 -62 25 -4 30 13 7 22 -11 4 -15 20 -15 56 0 38 4 50 15
50 8 0 15 4 15 9 0 5 -7 11 -15 15 -8 3 -15 15 -15 26 0 11 -4 20 -10 20 -5 0
-10 -9 -10 -20z"/>
<path d="M606 613 c-3 -3 -6 -39 -6 -80 0 -58 3 -73 15 -73 12 0 15 15 15 74
0 69 -8 95 -24 79z"/>
<path d="M685 595 c-29 -28 -33 -79 -9 -113 23 -33 88 -31 110 3 22 33 10 45
-16 17 -38 -41 -80 -22 -80 34 0 32 21 64 42 64 6 0 19 -7 29 -16 28 -25 47
-12 21 14 -29 29 -67 28 -97 -3z"/>
<path d="M867 603 c-11 -11 -17 -13 -17 -5 0 7 -7 12 -15 12 -13 0 -15 -12
-13 -72 2 -46 7 -73 16 -76 8 -2 12 10 12 41 0 59 7 77 37 88 13 5 21 13 18
19 -9 14 -18 12 -38 -7z"/>
<path d="M939 601 c-18 -14 -24 -29 -24 -59 0 -54 26 -82 76 -82 46 0 69 27
69 81 0 66 -71 101 -121 60z m71 -11 c45 -24 26 -110 -25 -110 -46 0 -62 77
-23 104 26 19 24 19 48 6z"/>
<path d="M1106 607 c-33 -24 -17 -59 34 -77 26 -9 45 -22 45 -30 0 -22 -44
-24 -66 -4 -22 20 -38 11 -23 -14 21 -33 108 -27 119 9 9 27 -10 47 -57 59
-28 8 -38 16 -36 28 4 23 32 27 51 7 17 -16 37 -20 37 -7 0 17 -37 42 -61 42
-14 0 -33 -6 -43 -13z"/>
<path d="M1267 608 c-22 -18 -39 -66 -31 -92 12 -38 35 -56 74 -56 48 0 70 24
70 78 0 32 -6 45 -26 61 -30 24 -62 27 -87 9z m73 -28 c24 -24 25 -48 4 -78
-30 -43 -84 -19 -84 37 0 22 32 61 50 61 6 0 19 -9 30 -20z"/>
<path d="M457 280 c-3 -13 5 -65 19 -116 13 -52 24 -96 24 -99 0 -8 88 -6 93
3 3 4 11 51 18 105 7 53 16 97 20 97 4 0 10 -19 14 -42 3 -24 11 -71 17 -106
l10 -63 47 3 46 3 22 80 c28 104 29 131 3 138 -11 3 -20 0 -20 -6 0 -7 -4 -6
-10 3 -7 11 -11 9 -19 -13 -6 -16 -11 -37 -11 -47 0 -37 -16 -28 -33 19 -16
45 -18 47 -57 46 -22 0 -40 -3 -40 -7 0 -4 -6 -5 -14 -2 -10 4 -16 -6 -21 -35
-4 -23 -10 -41 -14 -41 -3 0 -13 19 -22 43 -11 32 -19 41 -33 39 -10 -2 -22 2
-26 8 -5 8 -9 4 -13 -10z"/>
<path d="M911 278 c-20 -7 -21 -14 -21 -113 l0 -105 50 0 50 0 0 54 0 53 58 6
c68 6 98 21 111 57 16 44 11 56 -26 55 -25 0 -32 -4 -28 -15 4 -8 3 -11 -1 -7
-4 4 -15 0 -25 -9 -25 -22 -92 -15 -99 11 -5 21 -33 27 -69 13z"/>
<path d="M1243 283 c-9 -3 -13 -36 -13 -114 l0 -110 48 3 47 3 0 65 0 65 68 3
c57 2 68 6 63 18 -3 9 -6 22 -6 30 0 11 -16 14 -65 14 -48 0 -67 4 -71 14 -5
14 -44 18 -71 9z"/>
</g>
</svg>
